# xmcd
#
# Track frame offsets:
#	150
#	16023
#	32984
#	47645
#	66424
#	82394
#	96172
#	110568
#	128112
#	142814
#	158687
#	175648
#	190309
#	209088
#	225058
#	238836
#	253232
#	270776
#
# Disc length: 3806
#
# Revision: 1
# Processed by: cddbd v1.5.2PL0 Copyright (c) Steve Scherf et al.
# Submitted via: kJams Pro (development) 1.0patch45.9
#
DISCID=f40edc12
DTITLE=Various Artist - NSC 3024
DYEAR=1996
DGENRE=Country
TTITLE0=Tommy Shane Steiner - What If She's An Angel
TTITLE1=Carolyn Dawn Johnson - I Don't Want You To Go
TTITLE2=Tim McGraw - The Cowboy In Me
TTITLE3=Mark McGuinn - She Doesn't Dance
TTITLE4=Trisha Yearwood - Inside Out
TTITLE5=Emerson Drive - I Should Be Sleeping
TTITLE6=Chely Wright - Jezebel
TTITLE7=Kevin Denney - That's Just Jessie
TTITLE8=Blackhawk - Days Of America
TTITLE9=Tommy Shane Steiner - Vocals - What If She's An Angel
TTITLE10=Carolyn Dawn Johnson - Vocals - I Don't Want You To Go
TTITLE11=Tim McGraw - Vocals - The Cowboy In Me
TTITLE12=Mark McGuinn - Vocals - She Doesn't Dance
TTITLE13=Trisha Yearwood - Vocals - Inside Out
TTITLE14=Emerson Drive - Vocals - I Should Be Sleeping
TTITLE15=Chely Wright - Vocals - Jezebel
TTITLE16=Kevin Denney - Vocals - That's Just Jessie
TTITLE17=Blackhawk - Vocals - Days Of America
EXTD=
EXTT0=
EXTT1=
EXTT2=
EXTT3=
EXTT4=
EXTT5=
EXTT6=
EXTT7=
EXTT8=
EXTT9=
EXTT10=
EXTT11=
EXTT12=
EXTT13=
EXTT14=
EXTT15=
EXTT16=
EXTT17=
PLAYORDER=
